<?xml version="1.0" encoding="UTF-8"?>
<svg version="1.1" viewBox="0 0 968 964" width="242" height="241" xmlns="http://www.w3.org/2000/svg">
<path transform="translate(947,151)" d="m0 0 7 2 5 5 1 4-8 32-13 47-29 109-11 39-11 41-9 34-12 44-19 70-10 38-18 67-13 47-19 71-21 78-19 70-4 10-4 5h-8l-8-9-32-54-17-29-10-16-17-29-35-59-18-30-6 2-27 13-26 10-25 8-30 7-23 4-30 3-18 1h-14l-29-2-25-3-27-5-27-7-31-11-25-11-16-8-16-9-19-12-19-14-17-14-10-9-20-20-4-6 1-7 5-5 13-8 35-21 22-13 17-10 20-12 27-16 29-17 15-9 18-11 10-5 9 2 20 9 16 5 17 3 23 1 16-1 21-5 22-8 16-9 16-12 13-12 11-13 11-18 8-17 6-21 3-21 2-17 2-4 13-8 15-9 32-19 22-13 20-12 22-13 20-12 22-13 17-10 28-17 28-16 13-8 22-13 29-17 40-24 24-14 15-9z" fill="#FD1A1A"/>
<path transform="translate(371,2)" d="m0 0h63l22 2 30 5 28 7 33 11 26 11 22 11 25 15 14 10 11 8 17 14 20 18 10 10 4 6 1 5-4 6-8 6-21 12-25 15-59 35-28 17-21 12-28 17-20 11-24-10-17-6-14-3-8-1h-32l-18 3-17 5-16 7-14 8-12 9-10 9-9 9-12 16-8 13-7 16-5 15-4 23-1 19-3 5-9 6-29 17-15 9-29 17-28 17-29 17-25 15-27 16-19 10-5-1-5-4-4-11-7-24-7-36-3-28-1-21v-20l3-35 4-26 7-30 8-25 8-22 11-25 13-24 15-23 9-13 14-18 12-13 9-10 14-14 8-7 14-12 19-14 20-13 17-10 17-9 30-13 37-12 32-7 27-4z" fill="#FD1A1A"/>
<path transform="translate(929,187)" d="m0 0 1 4-10 35-27 101-19 70-21 78-38 140-23 86-21 78-20 74-12 44-7 25h-2l-8-14-24-40-17-29-9-15-17-29-24-40-13-22-5-16-3-6-3-2-9 1-36 19-29 12-27 9-26 6-31 5-31 3h-29l-31-3-28-5-27-6-26-8-32-13-29-15-16-10-12-8-13-10-16-13-13-12-5-4 2-4 19-11 7 4 10 6 40 18 21 7 18 5 21 5 17 3 23 3 12 1h53l34-4 34-7 30-9 27-11 29-14 19-11 22-15 16-12 20-18 9-9 1-2 3-20 6-16 7-11 8-10 12-9 14-7 9-3h3l1-6 8-14 4-8 11-25 8-22 7-25 6-27 4-24 2-34v-21l27-16 25-15 27-16 17-10 28-17 16-9 27-16 22-13z" fill="#FD7976"/>
<path transform="translate(947,151)" d="m0 0 7 2 5 5 1 4-8 32-13 47-29 109-11 39-11 41-9 34-12 44-19 70-10 38-18 67-13 47-19 71-21 78-19 70-4 10-4 5h-8l-8-9-32-54-17-29-10-16-17-29-35-59-18-30-6 2-27 13-26 10-25 8-30 7-23 4-30 3-18 1h-14l-29-2-25-3-27-5-27-7-31-11-25-11-16-8-16-9-19-12-19-14-17-14-10-9-20-20-4-6 1-7 5-5 13-8 35-21 22-13 17-10 20-12 27-16 29-17 15-9 18-11 10-5 9 2 20 9 16 5 17 3 23 1 16-1 21-5 22-8 16-9 16-12 13-12 11-13 11-18 8-17 6-21 3-21 2-17 2-4 13-8 15-9 32-19 22-13 20-12 22-13 20-12 22-13 17-10 28-17 28-16 13-8 22-13 29-17 40-24 24-14 15-9zm-18 36-14 8-22 13-29 17-27 16-54 32-45 27-13 8-24 14-20 12-24 14-13 8-22 13-20 12-24 14-4 5-2 17-4 19-8 24-8 16-7 12-8 11-9 11-13 13-14 10-18 11-20 9-21 6-19 3-9 1h-27l-20-3-24-7-12-5-2-1h-6l-27 15-11 7-17 10-20 12-17 10-20 12-41 24-20 12-9 6 2 4 14 12 10 9 17 13 13 9 16 10 24 13 17 8 23 9 26 8 31 7 24 4 31 3h29l31-3 36-6 24-6 27-9 30-13 21-11 14-7h6l5 5 5 16 6 11 12 21 27 45 15 26 12 20 13 22 24 40 4 7h2l10-36 40-148 27-101 25-92 17-63 17-62 11-42 19-70 19-71 12-43 1-7z" fill="#2F3238"/>
<path transform="translate(376,23)" d="m0 0h49l36 4 26 5 30 8 30 11 20 9 22 12 15 9 12 8 12 9 13 10 14 12 11 10-1 3-19 11-5-2-22-12-19-8-20-8-26-8-30-7-32-5-36-2h-19l-28 2-36 6-28 7-33 11-23 10-22 11-17 10-18 12-14 10-16 13-17 16-15 15-7 8-11 13-11 15-7 10-14 23-10 19-11 23-10 27-8 27-6 27-4 29-1 19v27l1 3-14 9-7 4h-3l-4-15-6-30-3-23-1-13v-46l2-23 5-29 5-21 7-23 8-21 9-20 12-24 14-23 8-11 12-16 13-15 4-5 16-16 8-7 11-10 17-13 13-9 19-12 22-12 24-11 21-8 27-8 28-6 27-4z" fill="#FD7875"/>
<path transform="translate(371,2)" d="m0 0h63l22 2 30 5 28 7 33 11 26 11 22 11 25 15 14 10 11 8 17 14 20 18 10 10 4 6 1 5-4 6-8 6-21 12-25 15-59 35-28 17-21 12-28 17-20 11-24-10-17-6-14-3-8-1h-32l-18 3-17 5-16 7-14 8-12 9-10 9-9 9-12 16-8 13-7 16-5 15-4 23-1 19-3 5-9 6-29 17-15 9-29 17-28 17-29 17-25 15-27 16-19 10-5-1-5-4-4-11-7-24-7-36-3-28-1-21v-20l3-35 4-26 7-30 8-25 8-22 11-25 13-24 15-23 9-13 14-18 12-13 9-10 14-14 8-7 14-12 19-14 20-13 17-10 17-9 30-13 37-12 32-7 27-4zm5 21-26 3-27 5-24 6-30 10-20 9-21 10-22 13-15 10-16 12-11 9-24 22-6 7-5 5-11 12-10 13-10 14-9 14-11 19-13 26-10 25-8 24-6 23-5 28-2 17-1 12v46l2 22 5 30 6 27 1 2 5-1 16-10 24-14 44-26 20-12 24-14 13-8 17-10 18-11 4-5 4-25 6-22 8-20 10-18 10-14 10-11 6-7 8-7 8-6 18-12 19-9 18-6 17-4 20-2h19l19 2 19 4 17 6 11 5 6-1 22-13 28-17 12-7 27-16 17-10 50-30v-2l9-3 16-10-2-4-13-12-11-9-13-10-18-13-20-12-14-8-28-13-24-9-28-8-28-6-22-3-20-2z" fill="#2F3238"/>
<path transform="translate(393,299)" d="m0 0h20l19 4 15 6 14 9 12 11 8 10 8 14 5 13 3 12 1 9v14l-3 17-6 16-8 14-9 10-5 5-7 6-13 8-11 5-15 4-5 1h-25l-17-4-16-7-11-7-12-11-7-8-8-13-6-13-4-17-1-10v-11l3-17 6-16 8-14 9-11 7-7 15-10 17-8 13-3z" fill="#FD1A1A"/>
<path transform="translate(690,505)" d="m0 0h21l12 3 12 5 11 7 7 6 9 12 8 15 3 9 1 5v19l-3 14-5 12-7 11-10 11-15 10-15 6-11 2h-13l-15-3-15-6-10-7-10-9-8-11-5-10-4-12-2-12v-9l3-14 6-15 10-14 4-5 12-9 14-7 9-3z" fill="#2F3238"/>
<path transform="translate(393,299)" d="m0 0h20l19 4 15 6 14 9 12 11 8 10 8 14 5 13 3 12 1 9v14l-3 17-6 16-8 14-9 10-5 5-7 6-13 8-11 5-15 4-5 1h-25l-17-4-16-7-11-7-12-11-7-8-8-13-6-13-4-17-1-10v-11l3-17 6-16 8-14 9-11 7-7 15-10 17-8 13-3zm-2 23-16 5-8 4-11 8-10 10-6 10-6 15-2 10v15l3 15 5 13 5 9 11 12 10 7 12 6 15 4h22l14-4 16-8 12-11 8-10 7-15 3-13v-21l-4-16-5-10-10-13-9-8-11-7-14-5-7-2z" fill="#2F3238"/>
<path transform="translate(465,357)" d="m0 0 3 3 5 14 2 9v21l-4 16-7 13-7 9-8 8-13 8-16 6-5 1h-22l-15-4-14-7-11-9-9-10-1-6 17-10 21-12 15-9 13-8 34-20z" fill="#FD7976"/>
<path transform="translate(693,528)" d="m0 0h16l13 4 11 7 9 9 6 12 3 11v15l-4 14-8 12-10 9-13 6-8 2h-15l-13-4-10-6-6-5-7-10-4-8-3-11v-14l4-14 7-11 5-5 6-5 10-5z" fill="#FD7976"/>
<path transform="translate(907,83)" d="m0 0 7 2 5 6v6l-5 6-25 15-44 26-15 9-32 19-17 10-19 11-6 3-6-1-6-5-1-2v-6l4-6 14-8 25-15 22-13 29-17 15-9 32-19 17-10z" fill="#303339"/>
<path transform="translate(640,241)" d="m0 0 7 1 5 5 1 7-4 6-11 7-22 13-15 9-27 16-24 14-6 3h-8l-5-5-1-2v-7l5-6 32-19 27-16 35-21z" fill="#303339"/>
<path transform="translate(263,464)" d="m0 0h7l5 3 2 4v7l-6 7-16 9-54 32-15 9-14 8-5 2h-6l-5-4-2-4 1-7 4-5 17-10 25-15 22-13 17-10 19-11z" fill="#303339"/>
<path transform="translate(697,206)" d="m0 0h7l5 3 2 3v9l-6 6h-9l-5-4-1-3v-7l5-6z" fill="#31343A"/>
<path transform="translate(49,591)" d="m0 0h8l6 4 1 2v8l-5 5-3 2-7-1-5-4-2-5 1-6z" fill="#31343A"/>
<path transform="translate(103,559)" d="m0 0h7l7 6v8l-5 6-2 1h-7l-6-5-1-2v-8l4-5z" fill="#31343A"/>
</svg>
